<mxfile host="app.diagrams.net" modified="2023-12-14T04:01:54.933Z" agent="Mozilla/5.0 (Macintosh; Intel Mac OS X 10_15_7) AppleWebKit/537.36 (KHTML, like Gecko) Chrome/119.0.0.0 Safari/537.36" etag="rHrI1vioTOZL4yv5Imla" version="22.1.7" type="github" pages="2">
  <diagram name="Page-1" id="CyuAK5O2ngBxA0gHdHQv">
    <mxGraphModel dx="1632" dy="2095" grid="1" gridSize="10" guides="1" tooltips="1" connect="1" arrows="1" fold="1" page="1" pageScale="1" pageWidth="850" pageHeight="600" math="0" shadow="0">
      <root>
        <mxCell id="0" />
        <mxCell id="1" parent="0" />
        <mxCell id="X7w895kAj7DChqH5guDB-75" value="Execute" style="whiteSpace=wrap;html=1;fillColor=none;verticalAlign=top;" vertex="1" parent="1">
          <mxGeometry x="2780" y="68" width="390" height="480" as="geometry" />
        </mxCell>
        <mxCell id="X7w895kAj7DChqH5guDB-73" value="" style="whiteSpace=wrap;html=1;fillColor=none;verticalAlign=top;" vertex="1" parent="1">
          <mxGeometry x="2360" y="-520" width="1300" height="480" as="geometry" />
        </mxCell>
        <mxCell id="X7w895kAj7DChqH5guDB-1" value="&lt;span style=&quot;background-color: initial;&quot;&gt;&lt;br&gt;&lt;div style=&quot;text-align: left;&quot;&gt;&lt;span style=&quot;background-color: initial;&quot;&gt;|- Project-root&lt;/span&gt;&lt;/div&gt;&lt;/span&gt;&lt;div style=&quot;text-align: left;&quot;&gt;&amp;nbsp; |- README.md&lt;/div&gt;&lt;div style=&quot;text-align: left;&quot;&gt;&amp;nbsp; |- app.py&lt;/div&gt;&lt;div style=&quot;text-align: left;&quot;&gt;&amp;nbsp; | cdk.json&lt;/div&gt;&lt;div style=&quot;text-align: left;&quot;&gt;&amp;nbsp; | cdk_project&lt;/div&gt;&lt;div style=&quot;text-align: left;&quot;&gt;&amp;nbsp; | requirements-dev.txt&lt;/div&gt;&lt;div style=&quot;text-align: left;&quot;&gt;&amp;nbsp; | requirements.txt&lt;/div&gt;&lt;div style=&quot;text-align: left;&quot;&gt;&amp;nbsp; | source.bat&lt;/div&gt;&lt;div style=&quot;text-align: left;&quot;&gt;&amp;nbsp; | tests&lt;/div&gt;" style="text;html=1;align=center;verticalAlign=middle;resizable=0;points=[];autosize=1;strokeColor=none;fillColor=none;" vertex="1" parent="1">
          <mxGeometry x="135" y="178" width="150" height="160" as="geometry" />
        </mxCell>
        <mxCell id="X7w895kAj7DChqH5guDB-2" value="cdk - infra&lt;br&gt;cdk init app -l python" style="text;html=1;align=center;verticalAlign=middle;resizable=0;points=[];autosize=1;strokeColor=none;fillColor=none;" vertex="1" parent="1">
          <mxGeometry x="145" y="133" width="130" height="40" as="geometry" />
        </mxCell>
        <mxCell id="X7w895kAj7DChqH5guDB-4" value="Ansible - CM" style="text;html=1;align=center;verticalAlign=middle;resizable=0;points=[];autosize=1;strokeColor=none;fillColor=none;" vertex="1" parent="1">
          <mxGeometry x="345" y="140" width="90" height="30" as="geometry" />
        </mxCell>
        <mxCell id="X7w895kAj7DChqH5guDB-5" value="concourse - pipelining" style="text;html=1;align=center;verticalAlign=middle;resizable=0;points=[];autosize=1;strokeColor=none;fillColor=none;" vertex="1" parent="1">
          <mxGeometry x="490" y="140" width="140" height="30" as="geometry" />
        </mxCell>
        <mxCell id="X7w895kAj7DChqH5guDB-6" value="codeipeline - pipelining" style="text;html=1;align=center;verticalAlign=middle;resizable=0;points=[];autosize=1;strokeColor=none;fillColor=none;" vertex="1" parent="1">
          <mxGeometry x="655" y="140" width="150" height="30" as="geometry" />
        </mxCell>
        <mxCell id="X7w895kAj7DChqH5guDB-7" value="File Systems" style="text;html=1;align=center;verticalAlign=middle;resizable=0;points=[];autosize=1;strokeColor=none;fillColor=none;" vertex="1" parent="1">
          <mxGeometry x="30" y="228" width="90" height="30" as="geometry" />
        </mxCell>
        <mxCell id="X7w895kAj7DChqH5guDB-8" value="&lt;span style=&quot;background-color: initial;&quot;&gt;&lt;br&gt;&lt;div style=&quot;text-align: left;&quot;&gt;&lt;span style=&quot;background-color: initial;&quot;&gt;|- Project-root&lt;/span&gt;&lt;/div&gt;&lt;/span&gt;&lt;div style=&quot;text-align: left;&quot;&gt;&amp;nbsp; |-&amp;nbsp;&lt;/div&gt;" style="text;html=1;align=center;verticalAlign=middle;resizable=0;points=[];autosize=1;strokeColor=none;fillColor=none;" vertex="1" parent="1">
          <mxGeometry x="340" y="240" width="100" height="60" as="geometry" />
        </mxCell>
        <mxCell id="X7w895kAj7DChqH5guDB-9" value="&lt;span style=&quot;background-color: initial;&quot;&gt;&lt;br&gt;&lt;div style=&quot;text-align: left;&quot;&gt;&lt;span style=&quot;background-color: initial;&quot;&gt;|- Project-root&lt;/span&gt;&lt;/div&gt;&lt;/span&gt;&lt;div style=&quot;text-align: left;&quot;&gt;&amp;nbsp; |-&amp;nbsp;&lt;/div&gt;" style="text;html=1;align=center;verticalAlign=middle;resizable=0;points=[];autosize=1;strokeColor=none;fillColor=none;" vertex="1" parent="1">
          <mxGeometry x="510" y="240" width="100" height="60" as="geometry" />
        </mxCell>
        <mxCell id="X7w895kAj7DChqH5guDB-10" value="&lt;span style=&quot;background-color: initial;&quot;&gt;&lt;br&gt;&lt;div style=&quot;text-align: left;&quot;&gt;&lt;span style=&quot;background-color: initial;&quot;&gt;|- Project-root&lt;/span&gt;&lt;/div&gt;&lt;/span&gt;&lt;div style=&quot;text-align: left;&quot;&gt;&amp;nbsp; |-&amp;nbsp;&lt;/div&gt;" style="text;html=1;align=center;verticalAlign=middle;resizable=0;points=[];autosize=1;strokeColor=none;fillColor=none;" vertex="1" parent="1">
          <mxGeometry x="680" y="240" width="100" height="60" as="geometry" />
        </mxCell>
        <mxCell id="X7w895kAj7DChqH5guDB-11" value="Default Configs" style="text;html=1;align=center;verticalAlign=middle;resizable=0;points=[];autosize=1;strokeColor=none;fillColor=none;" vertex="1" parent="1">
          <mxGeometry x="20" y="440" width="110" height="30" as="geometry" />
        </mxCell>
        <mxCell id="X7w895kAj7DChqH5guDB-12" value="init sequence" style="text;html=1;align=center;verticalAlign=middle;resizable=0;points=[];autosize=1;strokeColor=none;fillColor=none;" vertex="1" parent="1">
          <mxGeometry x="30" y="570" width="90" height="30" as="geometry" />
        </mxCell>
        <mxCell id="X7w895kAj7DChqH5guDB-13" value="Default dependencies" style="text;html=1;align=center;verticalAlign=middle;resizable=0;points=[];autosize=1;strokeColor=none;fillColor=none;" vertex="1" parent="1">
          <mxGeometry y="498" width="140" height="30" as="geometry" />
        </mxCell>
        <mxCell id="X7w895kAj7DChqH5guDB-19" style="edgeStyle=orthogonalEdgeStyle;rounded=0;orthogonalLoop=1;jettySize=auto;html=1;entryX=0;entryY=0.5;entryDx=0;entryDy=0;endArrow=none;endFill=0;" edge="1" parent="1" source="X7w895kAj7DChqH5guDB-14" target="X7w895kAj7DChqH5guDB-18">
          <mxGeometry relative="1" as="geometry" />
        </mxCell>
        <mxCell id="X7w895kAj7DChqH5guDB-14" value="Prepare File systems" style="rounded=0;whiteSpace=wrap;html=1;" vertex="1" parent="1">
          <mxGeometry x="840" y="220" width="120" height="60" as="geometry" />
        </mxCell>
        <mxCell id="X7w895kAj7DChqH5guDB-37" style="edgeStyle=orthogonalEdgeStyle;rounded=0;orthogonalLoop=1;jettySize=auto;html=1;entryX=0;entryY=0.5;entryDx=0;entryDy=0;endArrow=none;endFill=0;" edge="1" parent="1" source="X7w895kAj7DChqH5guDB-15" target="X7w895kAj7DChqH5guDB-31">
          <mxGeometry relative="1" as="geometry" />
        </mxCell>
        <mxCell id="X7w895kAj7DChqH5guDB-15" value="Prepare project configs" style="rounded=0;whiteSpace=wrap;html=1;" vertex="1" parent="1">
          <mxGeometry x="840" y="400" width="120" height="60" as="geometry" />
        </mxCell>
        <mxCell id="X7w895kAj7DChqH5guDB-40" style="edgeStyle=orthogonalEdgeStyle;rounded=0;orthogonalLoop=1;jettySize=auto;html=1;entryX=0;entryY=0.5;entryDx=0;entryDy=0;endArrow=none;endFill=0;" edge="1" parent="1" source="X7w895kAj7DChqH5guDB-16" target="X7w895kAj7DChqH5guDB-38">
          <mxGeometry relative="1" as="geometry" />
        </mxCell>
        <mxCell id="X7w895kAj7DChqH5guDB-16" value="Prepare dependencies" style="rounded=0;whiteSpace=wrap;html=1;" vertex="1" parent="1">
          <mxGeometry x="840" y="483" width="120" height="60" as="geometry" />
        </mxCell>
        <mxCell id="X7w895kAj7DChqH5guDB-50" style="edgeStyle=orthogonalEdgeStyle;rounded=0;orthogonalLoop=1;jettySize=auto;html=1;endArrow=none;endFill=0;" edge="1" parent="1" source="X7w895kAj7DChqH5guDB-17">
          <mxGeometry relative="1" as="geometry">
            <mxPoint x="1420" y="710" as="targetPoint" />
          </mxGeometry>
        </mxCell>
        <mxCell id="X7w895kAj7DChqH5guDB-17" value="interface with OS" style="rounded=0;whiteSpace=wrap;html=1;" vertex="1" parent="1">
          <mxGeometry x="840" y="680" width="120" height="60" as="geometry" />
        </mxCell>
        <mxCell id="X7w895kAj7DChqH5guDB-30" style="edgeStyle=orthogonalEdgeStyle;rounded=0;orthogonalLoop=1;jettySize=auto;html=1;entryX=0.5;entryY=0;entryDx=0;entryDy=0;endArrow=none;endFill=0;" edge="1" parent="1" source="X7w895kAj7DChqH5guDB-18" target="X7w895kAj7DChqH5guDB-21">
          <mxGeometry relative="1" as="geometry" />
        </mxCell>
        <mxCell id="X7w895kAj7DChqH5guDB-34" style="edgeStyle=orthogonalEdgeStyle;rounded=0;orthogonalLoop=1;jettySize=auto;html=1;endArrow=none;endFill=0;" edge="1" parent="1" source="X7w895kAj7DChqH5guDB-18">
          <mxGeometry relative="1" as="geometry">
            <mxPoint x="1240" y="250" as="targetPoint" />
          </mxGeometry>
        </mxCell>
        <mxCell id="X7w895kAj7DChqH5guDB-18" value="check for read/write/execute" style="rounded=0;whiteSpace=wrap;html=1;" vertex="1" parent="1">
          <mxGeometry x="1000" y="220" width="120" height="60" as="geometry" />
        </mxCell>
        <mxCell id="X7w895kAj7DChqH5guDB-26" style="edgeStyle=orthogonalEdgeStyle;rounded=0;orthogonalLoop=1;jettySize=auto;html=1;entryX=1;entryY=0.5;entryDx=0;entryDy=0;endArrow=none;endFill=0;" edge="1" parent="1" source="X7w895kAj7DChqH5guDB-20" target="X7w895kAj7DChqH5guDB-24">
          <mxGeometry relative="1" as="geometry" />
        </mxCell>
        <mxCell id="X7w895kAj7DChqH5guDB-33" style="edgeStyle=orthogonalEdgeStyle;rounded=0;orthogonalLoop=1;jettySize=auto;html=1;endArrow=none;endFill=0;" edge="1" parent="1" source="X7w895kAj7DChqH5guDB-20" target="X7w895kAj7DChqH5guDB-32">
          <mxGeometry relative="1" as="geometry" />
        </mxCell>
        <mxCell id="X7w895kAj7DChqH5guDB-45" style="edgeStyle=orthogonalEdgeStyle;rounded=0;orthogonalLoop=1;jettySize=auto;html=1;entryX=0;entryY=0.5;entryDx=0;entryDy=0;endArrow=none;endFill=0;" edge="1" parent="1" source="X7w895kAj7DChqH5guDB-20" target="X7w895kAj7DChqH5guDB-44">
          <mxGeometry relative="1" as="geometry" />
        </mxCell>
        <mxCell id="X7w895kAj7DChqH5guDB-20" value="file systems module" style="rounded=0;whiteSpace=wrap;html=1;" vertex="1" parent="1">
          <mxGeometry x="1180" y="118" width="120" height="60" as="geometry" />
        </mxCell>
        <mxCell id="X7w895kAj7DChqH5guDB-35" style="edgeStyle=orthogonalEdgeStyle;rounded=0;orthogonalLoop=1;jettySize=auto;html=1;endArrow=none;endFill=0;" edge="1" parent="1" source="X7w895kAj7DChqH5guDB-21">
          <mxGeometry relative="1" as="geometry">
            <mxPoint x="1240" y="340" as="targetPoint" />
          </mxGeometry>
        </mxCell>
        <mxCell id="X7w895kAj7DChqH5guDB-21" value="check for empty dir" style="rounded=0;whiteSpace=wrap;html=1;" vertex="1" parent="1">
          <mxGeometry x="1020" y="270" width="120" height="60" as="geometry" />
        </mxCell>
        <mxCell id="X7w895kAj7DChqH5guDB-23" value="user interface module" style="rounded=0;whiteSpace=wrap;html=1;" vertex="1" parent="1">
          <mxGeometry x="840" y="118" width="120" height="60" as="geometry" />
        </mxCell>
        <mxCell id="X7w895kAj7DChqH5guDB-27" style="edgeStyle=orthogonalEdgeStyle;rounded=0;orthogonalLoop=1;jettySize=auto;html=1;entryX=1;entryY=0.5;entryDx=0;entryDy=0;endArrow=none;endFill=0;" edge="1" parent="1" source="X7w895kAj7DChqH5guDB-24" target="X7w895kAj7DChqH5guDB-23">
          <mxGeometry relative="1" as="geometry" />
        </mxCell>
        <mxCell id="X7w895kAj7DChqH5guDB-29" style="edgeStyle=orthogonalEdgeStyle;rounded=0;orthogonalLoop=1;jettySize=auto;html=1;entryX=0;entryY=0.5;entryDx=0;entryDy=0;exitX=0.5;exitY=0;exitDx=0;exitDy=0;endArrow=none;endFill=0;" edge="1" parent="1" source="X7w895kAj7DChqH5guDB-24" target="X7w895kAj7DChqH5guDB-28">
          <mxGeometry relative="1" as="geometry" />
        </mxCell>
        <mxCell id="X7w895kAj7DChqH5guDB-24" value="Main Execution Module - Entry point" style="rounded=0;whiteSpace=wrap;html=1;" vertex="1" parent="1">
          <mxGeometry x="1000" y="118" width="120" height="60" as="geometry" />
        </mxCell>
        <mxCell id="X7w895kAj7DChqH5guDB-28" value="Main configuration" style="rounded=0;whiteSpace=wrap;html=1;" vertex="1" parent="1">
          <mxGeometry x="1180" y="30" width="120" height="60" as="geometry" />
        </mxCell>
        <mxCell id="X7w895kAj7DChqH5guDB-36" style="edgeStyle=orthogonalEdgeStyle;rounded=0;orthogonalLoop=1;jettySize=auto;html=1;endArrow=none;endFill=0;" edge="1" parent="1" source="X7w895kAj7DChqH5guDB-31">
          <mxGeometry relative="1" as="geometry">
            <mxPoint x="1240" y="430" as="targetPoint" />
          </mxGeometry>
        </mxCell>
        <mxCell id="X7w895kAj7DChqH5guDB-68" style="edgeStyle=orthogonalEdgeStyle;rounded=0;orthogonalLoop=1;jettySize=auto;html=1;endArrow=none;endFill=0;" edge="1" parent="1" source="X7w895kAj7DChqH5guDB-31">
          <mxGeometry relative="1" as="geometry">
            <mxPoint x="1610" y="400" as="targetPoint" />
            <Array as="points">
              <mxPoint x="1365" y="400" />
              <mxPoint x="1610" y="401" />
            </Array>
          </mxGeometry>
        </mxCell>
        <mxCell id="X7w895kAj7DChqH5guDB-31" value="pull from external / input parameter validation / read in from local package data" style="rounded=0;whiteSpace=wrap;html=1;" vertex="1" parent="1">
          <mxGeometry x="1000" y="395" width="120" height="70" as="geometry" />
        </mxCell>
        <mxCell id="X7w895kAj7DChqH5guDB-32" value="file systems module" style="rounded=0;whiteSpace=wrap;html=1;" vertex="1" parent="1">
          <mxGeometry x="1180" y="1030" width="120" height="60" as="geometry" />
        </mxCell>
        <mxCell id="X7w895kAj7DChqH5guDB-41" style="edgeStyle=orthogonalEdgeStyle;rounded=0;orthogonalLoop=1;jettySize=auto;html=1;entryX=0.5;entryY=0;entryDx=0;entryDy=0;endArrow=none;endFill=0;" edge="1" parent="1" source="X7w895kAj7DChqH5guDB-38" target="X7w895kAj7DChqH5guDB-39">
          <mxGeometry relative="1" as="geometry" />
        </mxCell>
        <mxCell id="X7w895kAj7DChqH5guDB-42" style="edgeStyle=orthogonalEdgeStyle;rounded=0;orthogonalLoop=1;jettySize=auto;html=1;endArrow=none;endFill=0;" edge="1" parent="1" source="X7w895kAj7DChqH5guDB-38">
          <mxGeometry relative="1" as="geometry">
            <mxPoint x="1240" y="513" as="targetPoint" />
          </mxGeometry>
        </mxCell>
        <mxCell id="X7w895kAj7DChqH5guDB-38" value="read in dependency config" style="rounded=0;whiteSpace=wrap;html=1;" vertex="1" parent="1">
          <mxGeometry x="1000" y="478" width="120" height="70" as="geometry" />
        </mxCell>
        <mxCell id="X7w895kAj7DChqH5guDB-43" style="edgeStyle=orthogonalEdgeStyle;rounded=0;orthogonalLoop=1;jettySize=auto;html=1;endArrow=none;endFill=0;" edge="1" parent="1" source="X7w895kAj7DChqH5guDB-39">
          <mxGeometry relative="1" as="geometry">
            <mxPoint x="1240" y="615" as="targetPoint" />
          </mxGeometry>
        </mxCell>
        <mxCell id="X7w895kAj7DChqH5guDB-49" style="edgeStyle=orthogonalEdgeStyle;rounded=0;orthogonalLoop=1;jettySize=auto;html=1;exitX=1;exitY=0.75;exitDx=0;exitDy=0;endArrow=none;endFill=0;" edge="1" parent="1" source="X7w895kAj7DChqH5guDB-39">
          <mxGeometry relative="1" as="geometry">
            <mxPoint x="1420" y="633" as="targetPoint" />
            <Array as="points">
              <mxPoint x="1340" y="633" />
              <mxPoint x="1340" y="633" />
            </Array>
          </mxGeometry>
        </mxCell>
        <mxCell id="X7w895kAj7DChqH5guDB-39" value="dependency check / remediation / error" style="rounded=0;whiteSpace=wrap;html=1;" vertex="1" parent="1">
          <mxGeometry x="1000" y="580" width="120" height="70" as="geometry" />
        </mxCell>
        <mxCell id="X7w895kAj7DChqH5guDB-47" style="edgeStyle=orthogonalEdgeStyle;rounded=0;orthogonalLoop=1;jettySize=auto;html=1;entryX=0.5;entryY=0;entryDx=0;entryDy=0;endArrow=none;endFill=0;" edge="1" parent="1" source="X7w895kAj7DChqH5guDB-44" target="X7w895kAj7DChqH5guDB-46">
          <mxGeometry relative="1" as="geometry" />
        </mxCell>
        <mxCell id="X7w895kAj7DChqH5guDB-63" style="edgeStyle=orthogonalEdgeStyle;rounded=0;orthogonalLoop=1;jettySize=auto;html=1;entryX=0;entryY=0.5;entryDx=0;entryDy=0;endArrow=none;endFill=0;" edge="1" parent="1" source="X7w895kAj7DChqH5guDB-44" target="X7w895kAj7DChqH5guDB-62">
          <mxGeometry relative="1" as="geometry" />
        </mxCell>
        <mxCell id="X7w895kAj7DChqH5guDB-44" value="OS module" style="rounded=0;whiteSpace=wrap;html=1;" vertex="1" parent="1">
          <mxGeometry x="1360" y="118" width="120" height="60" as="geometry" />
        </mxCell>
        <mxCell id="X7w895kAj7DChqH5guDB-46" value="OS module" style="rounded=0;whiteSpace=wrap;html=1;" vertex="1" parent="1">
          <mxGeometry x="1360" y="1030" width="120" height="60" as="geometry" />
        </mxCell>
        <mxCell id="X7w895kAj7DChqH5guDB-53" style="edgeStyle=orthogonalEdgeStyle;rounded=0;orthogonalLoop=1;jettySize=auto;html=1;endArrow=none;endFill=0;" edge="1" parent="1" source="X7w895kAj7DChqH5guDB-51" target="X7w895kAj7DChqH5guDB-52">
          <mxGeometry relative="1" as="geometry" />
        </mxCell>
        <mxCell id="X7w895kAj7DChqH5guDB-51" value="execute binaries" style="rounded=0;whiteSpace=wrap;html=1;" vertex="1" parent="1">
          <mxGeometry x="1000" y="675" width="120" height="70" as="geometry" />
        </mxCell>
        <mxCell id="X7w895kAj7DChqH5guDB-55" style="edgeStyle=orthogonalEdgeStyle;rounded=0;orthogonalLoop=1;jettySize=auto;html=1;entryX=0.5;entryY=0;entryDx=0;entryDy=0;endArrow=none;endFill=0;" edge="1" parent="1" source="X7w895kAj7DChqH5guDB-52" target="X7w895kAj7DChqH5guDB-54">
          <mxGeometry relative="1" as="geometry" />
        </mxCell>
        <mxCell id="X7w895kAj7DChqH5guDB-56" style="edgeStyle=orthogonalEdgeStyle;rounded=0;orthogonalLoop=1;jettySize=auto;html=1;endArrow=none;endFill=0;" edge="1" parent="1" source="X7w895kAj7DChqH5guDB-52">
          <mxGeometry relative="1" as="geometry">
            <mxPoint x="1240" y="825" as="targetPoint" />
          </mxGeometry>
        </mxCell>
        <mxCell id="X7w895kAj7DChqH5guDB-52" value="validate response output" style="rounded=0;whiteSpace=wrap;html=1;" vertex="1" parent="1">
          <mxGeometry x="1000" y="790" width="120" height="70" as="geometry" />
        </mxCell>
        <mxCell id="X7w895kAj7DChqH5guDB-57" style="edgeStyle=orthogonalEdgeStyle;rounded=0;orthogonalLoop=1;jettySize=auto;html=1;endArrow=none;endFill=0;" edge="1" parent="1" source="X7w895kAj7DChqH5guDB-54">
          <mxGeometry relative="1" as="geometry">
            <mxPoint x="1240" y="945" as="targetPoint" />
          </mxGeometry>
        </mxCell>
        <mxCell id="X7w895kAj7DChqH5guDB-54" value="validate FS changes" style="rounded=0;whiteSpace=wrap;html=1;" vertex="1" parent="1">
          <mxGeometry x="1000" y="910" width="120" height="70" as="geometry" />
        </mxCell>
        <mxCell id="X7w895kAj7DChqH5guDB-58" value="version control" style="text;html=1;align=center;verticalAlign=middle;resizable=0;points=[];autosize=1;strokeColor=none;fillColor=none;" vertex="1" parent="1">
          <mxGeometry x="25" y="1080" width="100" height="30" as="geometry" />
        </mxCell>
        <mxCell id="X7w895kAj7DChqH5guDB-66" style="edgeStyle=orthogonalEdgeStyle;rounded=0;orthogonalLoop=1;jettySize=auto;html=1;entryX=0.5;entryY=0;entryDx=0;entryDy=0;endArrow=none;endFill=0;" edge="1" parent="1" source="X7w895kAj7DChqH5guDB-62" target="X7w895kAj7DChqH5guDB-65">
          <mxGeometry relative="1" as="geometry" />
        </mxCell>
        <mxCell id="X7w895kAj7DChqH5guDB-62" value="VC module" style="rounded=0;whiteSpace=wrap;html=1;" vertex="1" parent="1">
          <mxGeometry x="1550" y="118" width="120" height="60" as="geometry" />
        </mxCell>
        <mxCell id="X7w895kAj7DChqH5guDB-67" style="edgeStyle=orthogonalEdgeStyle;rounded=0;orthogonalLoop=1;jettySize=auto;html=1;endArrow=none;endFill=0;" edge="1" parent="1" source="X7w895kAj7DChqH5guDB-64">
          <mxGeometry relative="1" as="geometry">
            <mxPoint x="1610" y="330" as="targetPoint" />
          </mxGeometry>
        </mxCell>
        <mxCell id="X7w895kAj7DChqH5guDB-64" value="fetch project structure" style="rounded=0;whiteSpace=wrap;html=1;" vertex="1" parent="1">
          <mxGeometry x="1050" y="310" width="120" height="60" as="geometry" />
        </mxCell>
        <mxCell id="X7w895kAj7DChqH5guDB-65" value="VC module" style="rounded=0;whiteSpace=wrap;html=1;" vertex="1" parent="1">
          <mxGeometry x="1550" y="780" width="120" height="60" as="geometry" />
        </mxCell>
        <mxCell id="X7w895kAj7DChqH5guDB-69" value="main" style="rounded=0;whiteSpace=wrap;html=1;fontSize=18;" vertex="1" parent="1">
          <mxGeometry x="2550" y="-520" width="170" height="30" as="geometry" />
        </mxCell>
        <mxCell id="X7w895kAj7DChqH5guDB-70" value="FS" style="rounded=0;whiteSpace=wrap;html=1;fontSize=18;" vertex="1" parent="1">
          <mxGeometry x="2920" y="-520" width="170" height="30" as="geometry" />
        </mxCell>
        <mxCell id="X7w895kAj7DChqH5guDB-71" value="Prepare dependencies" style="rounded=0;whiteSpace=wrap;html=1;fontSize=18;" vertex="1" parent="1">
          <mxGeometry x="3280" y="-520" width="170" height="40" as="geometry" />
        </mxCell>
        <mxCell id="X7w895kAj7DChqH5guDB-72" value="interface with OS" style="rounded=0;whiteSpace=wrap;html=1;" vertex="1" parent="1">
          <mxGeometry x="2910" y="218" width="120" height="60" as="geometry" />
        </mxCell>
        <mxCell id="X7w895kAj7DChqH5guDB-74" value="Input" style="whiteSpace=wrap;html=1;fillColor=none;verticalAlign=top;" vertex="1" parent="1">
          <mxGeometry x="1940" y="68" width="390" height="480" as="geometry" />
        </mxCell>
        <mxCell id="X7w895kAj7DChqH5guDB-77" value="Project" style="rounded=0;whiteSpace=wrap;html=1;fontSize=18;" vertex="1" parent="1">
          <mxGeometry x="2370" y="-780" width="170" height="90" as="geometry" />
        </mxCell>
        <mxCell id="X7w895kAj7DChqH5guDB-78" value="configuration" style="rounded=0;whiteSpace=wrap;html=1;fontSize=18;" vertex="1" parent="1">
          <mxGeometry x="2490" y="-790" width="170" height="30" as="geometry" />
        </mxCell>
        <mxCell id="X7w895kAj7DChqH5guDB-79" value="FS structure" style="rounded=0;whiteSpace=wrap;html=1;fontSize=18;" vertex="1" parent="1">
          <mxGeometry x="2490" y="-750" width="170" height="30" as="geometry" />
        </mxCell>
        <mxCell id="X7w895kAj7DChqH5guDB-80" value="Dependencies" style="rounded=0;whiteSpace=wrap;html=1;fontSize=18;" vertex="1" parent="1">
          <mxGeometry x="2490" y="-710" width="170" height="30" as="geometry" />
        </mxCell>
        <mxCell id="X7w895kAj7DChqH5guDB-81" value="Initialize" style="rounded=0;whiteSpace=wrap;html=1;fontSize=18;rotation=-90;" vertex="1" parent="1">
          <mxGeometry x="2145" y="-306" width="483" height="54" as="geometry" />
        </mxCell>
        <mxCell id="X7w895kAj7DChqH5guDB-82" style="edgeStyle=orthogonalEdgeStyle;rounded=0;orthogonalLoop=1;jettySize=auto;html=1;entryX=0.211;entryY=0.997;entryDx=0;entryDy=0;entryPerimeter=0;endArrow=none;endFill=0;" edge="1" parent="1" source="X7w895kAj7DChqH5guDB-69" target="X7w895kAj7DChqH5guDB-73">
          <mxGeometry relative="1" as="geometry" />
        </mxCell>
        <mxCell id="X7w895kAj7DChqH5guDB-83" style="edgeStyle=orthogonalEdgeStyle;rounded=0;orthogonalLoop=1;jettySize=auto;html=1;endArrow=none;endFill=0;" edge="1" parent="1" source="X7w895kAj7DChqH5guDB-70">
          <mxGeometry relative="1" as="geometry">
            <mxPoint x="3005" y="-40" as="targetPoint" />
          </mxGeometry>
        </mxCell>
        <mxCell id="TEg64u3y-pWH7YhH9ex6-1" style="edgeStyle=orthogonalEdgeStyle;rounded=0;orthogonalLoop=1;jettySize=auto;html=1;endArrow=none;endFill=0;" edge="1" parent="1">
          <mxGeometry relative="1" as="geometry">
            <mxPoint x="2636" y="-440" as="sourcePoint" />
            <mxPoint x="3006" y="-440" as="targetPoint" />
          </mxGeometry>
        </mxCell>
        <mxCell id="TEg64u3y-pWH7YhH9ex6-12" value="main" style="shape=umlLifeline;perimeter=lifelinePerimeter;whiteSpace=wrap;html=1;container=0;dropTarget=0;collapsible=0;recursiveResize=0;outlineConnect=0;portConstraint=eastwest;newEdgeStyle={&quot;edgeStyle&quot;:&quot;elbowEdgeStyle&quot;,&quot;elbow&quot;:&quot;vertical&quot;,&quot;curved&quot;:0,&quot;rounded&quot;:0};fontSize=18;" vertex="1" parent="1">
          <mxGeometry x="2835" y="-1020" width="100" height="440" as="geometry" />
        </mxCell>
        <mxCell id="TEg64u3y-pWH7YhH9ex6-13" value="" style="html=1;points=[];perimeter=orthogonalPerimeter;outlineConnect=0;targetShapes=umlLifeline;portConstraint=eastwest;newEdgeStyle={&quot;edgeStyle&quot;:&quot;elbowEdgeStyle&quot;,&quot;elbow&quot;:&quot;vertical&quot;,&quot;curved&quot;:0,&quot;rounded&quot;:0};fontSize=18;" vertex="1" parent="TEg64u3y-pWH7YhH9ex6-12">
          <mxGeometry x="45" y="70" width="10" height="310" as="geometry" />
        </mxCell>
        <mxCell id="TEg64u3y-pWH7YhH9ex6-16" value="FS" style="shape=umlLifeline;perimeter=lifelinePerimeter;whiteSpace=wrap;html=1;container=0;dropTarget=0;collapsible=0;recursiveResize=0;outlineConnect=0;portConstraint=eastwest;newEdgeStyle={&quot;edgeStyle&quot;:&quot;elbowEdgeStyle&quot;,&quot;elbow&quot;:&quot;vertical&quot;,&quot;curved&quot;:0,&quot;rounded&quot;:0};fontSize=18;" vertex="1" parent="1">
          <mxGeometry x="3015" y="-1020" width="100" height="440" as="geometry" />
        </mxCell>
        <mxCell id="TEg64u3y-pWH7YhH9ex6-17" value="" style="html=1;points=[];perimeter=orthogonalPerimeter;outlineConnect=0;targetShapes=umlLifeline;portConstraint=eastwest;newEdgeStyle={&quot;edgeStyle&quot;:&quot;elbowEdgeStyle&quot;,&quot;elbow&quot;:&quot;vertical&quot;,&quot;curved&quot;:0,&quot;rounded&quot;:0};fontSize=18;" vertex="1" parent="TEg64u3y-pWH7YhH9ex6-16">
          <mxGeometry x="45" y="80" width="10" height="40" as="geometry" />
        </mxCell>
        <mxCell id="TEg64u3y-pWH7YhH9ex6-30" value="" style="html=1;points=[];perimeter=orthogonalPerimeter;outlineConnect=0;targetShapes=umlLifeline;portConstraint=eastwest;newEdgeStyle={&quot;edgeStyle&quot;:&quot;elbowEdgeStyle&quot;,&quot;elbow&quot;:&quot;vertical&quot;,&quot;curved&quot;:0,&quot;rounded&quot;:0};fontSize=18;" vertex="1" parent="TEg64u3y-pWH7YhH9ex6-16">
          <mxGeometry x="45" y="140" width="10" height="40" as="geometry" />
        </mxCell>
        <mxCell id="TEg64u3y-pWH7YhH9ex6-18" value="validate permissions" style="html=1;verticalAlign=bottom;endArrow=block;edgeStyle=elbowEdgeStyle;elbow=vertical;curved=0;rounded=0;fontSize=18;" edge="1" parent="1" source="TEg64u3y-pWH7YhH9ex6-13" target="TEg64u3y-pWH7YhH9ex6-17">
          <mxGeometry x="0.0053" relative="1" as="geometry">
            <mxPoint x="2990" y="-930" as="sourcePoint" />
            <Array as="points">
              <mxPoint x="2975" y="-940" />
            </Array>
            <mxPoint as="offset" />
          </mxGeometry>
        </mxCell>
        <mxCell id="TEg64u3y-pWH7YhH9ex6-19" value="validation" style="html=1;verticalAlign=bottom;endArrow=open;dashed=1;endSize=8;edgeStyle=elbowEdgeStyle;elbow=vertical;curved=0;rounded=0;fontSize=18;" edge="1" parent="1">
          <mxGeometry relative="1" as="geometry">
            <mxPoint x="2890" y="-910" as="targetPoint" />
            <Array as="points">
              <mxPoint x="2985" y="-910" />
            </Array>
            <mxPoint x="3059.9999999999995" y="-910" as="sourcePoint" />
          </mxGeometry>
        </mxCell>
        <mxCell id="TEg64u3y-pWH7YhH9ex6-27" value="VC" style="shape=umlLifeline;perimeter=lifelinePerimeter;whiteSpace=wrap;html=1;container=0;dropTarget=0;collapsible=0;recursiveResize=0;outlineConnect=0;portConstraint=eastwest;newEdgeStyle={&quot;edgeStyle&quot;:&quot;elbowEdgeStyle&quot;,&quot;elbow&quot;:&quot;vertical&quot;,&quot;curved&quot;:0,&quot;rounded&quot;:0};fontSize=18;" vertex="1" parent="1">
          <mxGeometry x="3190" y="-1020" width="100" height="440" as="geometry" />
        </mxCell>
        <mxCell id="TEg64u3y-pWH7YhH9ex6-28" value="" style="html=1;points=[];perimeter=orthogonalPerimeter;outlineConnect=0;targetShapes=umlLifeline;portConstraint=eastwest;newEdgeStyle={&quot;edgeStyle&quot;:&quot;elbowEdgeStyle&quot;,&quot;elbow&quot;:&quot;vertical&quot;,&quot;curved&quot;:0,&quot;rounded&quot;:0};fontSize=18;" vertex="1" parent="TEg64u3y-pWH7YhH9ex6-27">
          <mxGeometry x="45" y="210" width="10" height="50" as="geometry" />
        </mxCell>
        <mxCell id="TEg64u3y-pWH7YhH9ex6-29" value="validate dir empty" style="html=1;verticalAlign=bottom;endArrow=block;edgeStyle=elbowEdgeStyle;elbow=vertical;curved=0;rounded=0;fontSize=18;" edge="1" parent="1">
          <mxGeometry x="0.0053" relative="1" as="geometry">
            <mxPoint x="2890" y="-870.67" as="sourcePoint" />
            <Array as="points">
              <mxPoint x="2975" y="-870.67" />
            </Array>
            <mxPoint x="3060" y="-870.67" as="targetPoint" />
            <mxPoint as="offset" />
          </mxGeometry>
        </mxCell>
        <mxCell id="TEg64u3y-pWH7YhH9ex6-31" value="validation" style="html=1;verticalAlign=bottom;endArrow=open;dashed=1;endSize=8;edgeStyle=elbowEdgeStyle;elbow=vertical;curved=0;rounded=0;fontSize=18;" edge="1" parent="1">
          <mxGeometry relative="1" as="geometry">
            <mxPoint x="2890" y="-840" as="targetPoint" />
            <Array as="points">
              <mxPoint x="2985" y="-840" />
            </Array>
            <mxPoint x="3059.9999999999995" y="-840" as="sourcePoint" />
          </mxGeometry>
        </mxCell>
        <mxCell id="TEg64u3y-pWH7YhH9ex6-32" value="Fetch project structure" style="html=1;verticalAlign=bottom;endArrow=block;edgeStyle=elbowEdgeStyle;elbow=vertical;curved=0;rounded=0;fontSize=18;" edge="1" parent="1" target="TEg64u3y-pWH7YhH9ex6-28">
          <mxGeometry x="-0.4698" relative="1" as="geometry">
            <mxPoint x="2890" y="-800" as="sourcePoint" />
            <Array as="points">
              <mxPoint x="2975" y="-800" />
            </Array>
            <mxPoint x="3230" y="-800" as="targetPoint" />
            <mxPoint x="-1" as="offset" />
          </mxGeometry>
        </mxCell>
        <mxCell id="TEg64u3y-pWH7YhH9ex6-33" value="structure" style="html=1;verticalAlign=bottom;endArrow=open;dashed=1;endSize=8;edgeStyle=elbowEdgeStyle;elbow=vertical;curved=0;rounded=0;fontSize=18;" edge="1" parent="1">
          <mxGeometry x="-0.2647" relative="1" as="geometry">
            <mxPoint x="2895" y="-767.67" as="targetPoint" />
            <Array as="points">
              <mxPoint x="3160" y="-767.67" />
            </Array>
            <mxPoint x="3235" y="-767.6700000000001" as="sourcePoint" />
            <mxPoint as="offset" />
          </mxGeometry>
        </mxCell>
      </root>
    </mxGraphModel>
  </diagram>
  <diagram id="FmOvdzRcQoUcNy4R-Dsk" name="Page-2">
    <mxGraphModel dx="1012" dy="671" grid="1" gridSize="10" guides="1" tooltips="1" connect="1" arrows="1" fold="1" page="1" pageScale="1" pageWidth="850" pageHeight="600" math="0" shadow="0">
      <root>
        <mxCell id="0" />
        <mxCell id="1" parent="0" />
      </root>
    </mxGraphModel>
  </diagram>
</mxfile>
